<?xml version="1.0" standalone="no"?>
<!DOCTYPE svg PUBLIC "-//W3C//DTD SVG 20010904//EN"
 "http://www.w3.org/TR/2001/REC-SVG-20010904/DTD/svg10.dtd">
<svg version="1.0" xmlns="http://www.w3.org/2000/svg"
 width="512.000000pt" height="512.000000pt" viewBox="0 0 512.000000 512.000000"
 preserveAspectRatio="xMidYMid meet">
<metadata>
Created by potrace 1.14, written by Peter Selinger 2001-2017
</metadata>
<g transform="translate(0.000000,512.000000) scale(0.100000,-0.100000)"
fill="#000000" stroke="none">
<path d="M2279 5116 c-2 -2 -35 -6 -74 -10 -38 -3 -81 -8 -95 -10 -14 -3 -43
-7 -65 -10 -57 -7 -249 -53 -325 -77 -536 -173 -1002 -521 -1300 -968 -8 -13
-25 -37 -37 -54 -13 -17 -23 -35 -23 -41 0 -5 -6 -17 -14 -25 -48 -56 -172
-330 -229 -506 -81 -253 -112 -454 -112 -735 0 -180 9 -304 29 -417 3 -18 8
-47 11 -63 3 -17 12 -59 21 -93 8 -34 17 -71 19 -81 5 -21 43 -142 52 -166 4
-8 7 -17 7 -20 8 -33 72 -178 122 -277 58 -114 205 -348 251 -398 10 -12 38
-45 63 -75 114 -139 275 -288 447 -413 51 -37 94 -67 97 -67 3 0 24 -13 48
-29 109 -73 365 -192 522 -242 118 -38 278 -75 399 -93 163 -25 499 -28 658
-8 93 13 98 12 135 -9 21 -12 46 -28 54 -34 31 -25 258 -114 350 -139 151 -39
234 -50 401 -50 171 -1 199 6 225 56 30 58 7 130 -51 164 -89 51 -290 228
-290 255 0 7 25 26 55 42 252 136 548 384 725 607 33 41 100 116 149 165 322
325 520 699 592 1120 23 134 26 407 7 545 -73 533 -387 1046 -853 1395 -38 29
-105 84 -147 123 -269 243 -581 423 -923 531 -72 23 -254 67 -312 75 -21 3
-53 8 -70 11 -18 3 -51 7 -73 11 -43 6 -441 15 -446 10z"/>
</g>
</svg>
